<?xml version="1.0" encoding="UTF-8"?>
<svg xmlns="http://www.w3.org/2000/svg" xmlns:xlink="http://www.w3.org/1999/xlink" width="960" height="912" viewBox="1 1 960 912" overflow="hidden"><defs><clipPath id="clip0"><rect x="-1" y="-1" width="962" height="914"/></clipPath></defs><g clip-path="url(#clip0)" transform="translate(1 1)"><rect x="0" y="0" width="960" height="912" fill="#FFFFFF"/><path d="M586.338 73.3319C796.861 131.858 920.138 350.182 861.686 560.971 803.233 771.76 585.185 895.193 374.662 836.667 164.139 778.14 40.862 559.817 99.3145 349.028 123.14 263.108 175.223 187.751 247.136 135.15L235.577 113.902 301.6 126.132 279.547 194.731 267.999 173.505C112.754 291.032 82.0427 512.337 199.403 667.802 316.764 823.267 537.755 854.022 693 736.495 848.245 618.968 878.956 397.664 761.596 242.198 714.954 180.413 649.31 135.711 574.786 114.987Z" stroke="#000000" stroke-width="2.66667" stroke-linejoin="round" stroke-miterlimit="10" fill="#CBCBCB" fill-rule="evenodd"/><path d="M308.5 115.5C308.5 71.3174 344.317 35.5001 388.5 35.5001L574.5 35.5001C618.683 35.5001 654.5 71.3174 654.5 115.5L654.5 115.5C654.5 159.683 618.683 195.5 574.5 195.5L388.5 195.5C344.317 195.5 308.5 159.683 308.5 115.5Z" stroke="#000000" stroke-width="2.66667" stroke-miterlimit="8" fill="#FFFFFF" fill-rule="evenodd"/><switch><text font-family="Liberation Sans,sans-serif" font-weight="normal" font-size="53" transform="translate(0 101)" id="trsvg14-si" systemLanguage="si"><tspan x="50%" text-anchor="middle" id="trsvg1-si">නිරීක්ෂණය</tspan><tspan font-size="53" x="50%" y="57" text-anchor="middle" id="trsvg2-si">/ ගැටළුව</tspan></text><text font-family="Liberation Sans,sans-serif" font-weight="normal" font-size="53" transform="translate(0 101)" id="trsvg14-yue" systemLanguage="yue"><tspan x="50%" text-anchor="middle" id="trsvg1-yue">觀察</tspan><tspan font-size="53" x="50%" y="57" text-anchor="middle" id="trsvg2-yue">/ 問問題</tspan></text><text font-family="Liberation Sans,sans-serif" font-weight="400" font-size="53" transform="translate(0 101)" id="trsvg14"><tspan x="50%" text-anchor="middle" id="trsvg1">Observation</tspan><tspan font-size="53" x="50%" y="57" text-anchor="middle" id="trsvg2">/ question</tspan></text></switch><path d="M592.5 291.5C592.5 247.317 628.317 211.5 672.5 211.5L857.5 211.5C901.683 211.5 937.5 247.317 937.5 291.5L937.5 291.5C937.5 335.683 901.683 371.5 857.5 371.5L672.5 371.5C628.317 371.5 592.5 335.683 592.5 291.5Z" stroke="#000000" stroke-width="2.66667" stroke-miterlimit="8" fill="#FFFFFF" fill-rule="evenodd"/><switch><text font-family="Liberation Sans,sans-serif" font-weight="normal" font-size="53" transform="translate(0 278)" id="trsvg15-si" systemLanguage="si"><tspan x="80%" text-anchor="middle" id="trsvg3-si">මාතෘකාව</tspan><tspan font-size="53" x="80.8%" y="57" text-anchor="middle" id="trsvg4-si">ගවේෂණය</tspan></text><text font-family="Liberation Sans,sans-serif" font-weight="normal" font-size="53" transform="translate(0 278)" id="trsvg15-yue" systemLanguage="yue"><tspan x="80%" text-anchor="middle" id="trsvg3-yue">研究吓</tspan><tspan font-size="53" x="80.8%" y="57" text-anchor="middle" id="trsvg4-yue">目標課題</tspan></text><text font-family="Liberation Sans,sans-serif" font-weight="400" font-size="53" transform="translate(0 278)" id="trsvg15"><tspan x="80%" text-anchor="middle" id="trsvg3">Research</tspan><tspan font-size="53" x="80.8%" y="57" text-anchor="middle" id="trsvg4">topic area</tspan></text></switch><path d="M592.5 619.5C592.5 575.317 628.317 539.5 672.5 539.5L857.5 539.5C901.683 539.5 937.5 575.317 937.5 619.5L937.5 619.5C937.5 663.683 901.683 699.5 857.5 699.5L672.5 699.5C628.317 699.5 592.5 663.683 592.5 619.5Z" stroke="#000000" stroke-width="2.66667" stroke-miterlimit="8" fill="#FFFFFF" fill-rule="evenodd"/><switch><text font-family="Liberation Sans,sans-serif" font-weight="normal" font-size="53" transform="translate(0 635)" id="trsvg16-si" systemLanguage="si"><tspan x="80%" text-anchor="middle" id="trsvg5-si">කල්පිතය</tspan></text><text font-family="Liberation Sans,sans-serif" font-weight="normal" font-size="53" transform="translate(0 635)" id="trsvg16-yue" systemLanguage="yue"><tspan x="80%" text-anchor="middle" id="trsvg5-yue">提出假說</tspan></text><text font-family="Liberation Sans,sans-serif" font-weight="400" font-size="53" transform="translate(0 635)" id="trsvg16"><tspan x="80%" text-anchor="middle" id="trsvg5">Hypothesis</tspan></text></switch><path d="M308.5 797.5C308.5 753.317 344.317 717.5 388.5 717.5L574.5 717.5C618.683 717.5 654.5 753.317 654.5 797.5L654.5 797.5C654.5 841.683 618.683 877.5 574.5 877.5L388.5 877.5C344.317 877.5 308.5 841.683 308.5 797.5Z" stroke="#000000" stroke-width="2.66667" stroke-miterlimit="8" fill="#FFFFFF" fill-rule="evenodd"/><switch><text font-family="Liberation Sans,sans-serif" font-weight="normal" font-size="53" transform="translate(0 784)" id="trsvg17-si" systemLanguage="si"><tspan x="50%" text-anchor="middle" id="trsvg6-si"> </tspan><tspan font-size="53" x="50%" y="57" text-anchor="middle" id="trsvg7-si">පරීක්ෂණය</tspan></text><text font-family="Liberation Sans,sans-serif" font-weight="normal" font-size="53" transform="translate(0 784)" id="trsvg17-yue" systemLanguage="yue"><tspan x="50%" text-anchor="middle" id="trsvg6-yue">用實驗嚟</tspan><tspan font-size="53" x="50%" y="57" text-anchor="middle" id="trsvg7-yue">驗證</tspan></text><text font-family="Liberation Sans,sans-serif" font-weight="400" font-size="53" transform="translate(0 784)" id="trsvg17"><tspan x="50%" text-anchor="middle" id="trsvg6">Test with</tspan><tspan font-size="53" x="50%" y="57" text-anchor="middle" id="trsvg7">experiment</tspan></text></switch><path d="M24.5001 619.5C24.5001 575.317 60.3173 539.5 104.5 539.5L290.5 539.5C334.683 539.5 370.5 575.317 370.5 619.5L370.5 619.5C370.5 663.683 334.683 699.5 290.5 699.5L104.5 699.5C60.3173 699.5 24.5001 663.683 24.5001 619.5Z" stroke="#000000" stroke-width="2.66667" stroke-miterlimit="8" fill="#FFFFFF" fill-rule="evenodd"/><switch><text font-family="Liberation Sans,sans-serif" font-weight="normal" font-size="53" transform="translate(0 606)" id="trsvg18-si" systemLanguage="si"><tspan x="20%" text-anchor="middle" id="trsvg8-si">දත්ත</tspan><tspan font-size="53" x="19.2%" y="57" text-anchor="middle" id="trsvg9-si">විශ්ලේෂණය</tspan></text><text font-family="Liberation Sans,sans-serif" font-weight="normal" font-size="53" transform="translate(0 606)" id="trsvg18-yue" systemLanguage="yue"><tspan x="20%" text-anchor="middle" id="trsvg8-yue">分析吓</tspan><tspan font-size="53" x="19.2%" y="57" text-anchor="middle" id="trsvg9-yue">啲 data</tspan></text><text font-family="Liberation Sans,sans-serif" font-weight="400" font-size="53" transform="translate(0 606)" id="trsvg18"><tspan x="20%" text-anchor="middle" id="trsvg8">Analyze</tspan><tspan font-size="53" x="19.2%" y="57" text-anchor="middle" id="trsvg9">data</tspan></text></switch><path d="M24.5001 291.5C24.5001 247.317 60.3173 211.5 104.5 211.5L290.5 211.5C334.683 211.5 370.5 247.317 370.5 291.5L370.5 291.5C370.5 335.683 334.683 371.5 290.5 371.5L104.5 371.5C60.3173 371.5 24.5001 335.683 24.5001 291.5Z" stroke="#000000" stroke-width="2.66667" stroke-miterlimit="8" fill="#FFFFFF" fill-rule="evenodd"/><switch><text font-family="Liberation Sans,sans-serif" font-weight="normal" font-size="53" transform="translate(0 278)" id="trsvg19-si" systemLanguage="si"><tspan x="20%" text-anchor="middle" id="trsvg10-si">අවසාන</tspan><tspan font-size="53" x="19.2%" y="57" text-anchor="middle" id="trsvg11-si">නිගමනය</tspan><tspan font-size="64" x="50%" y="156" text-anchor="middle" id="trsvg12-si">විද්‍යාත්මක</tspan><tspan font-size="64" x="50%" y="248" text-anchor="middle" id="trsvg13-si">ක්‍රමය</tspan></text><text font-family="Liberation Sans,sans-serif" font-weight="normal" font-size="53" transform="translate(0 278)" id="trsvg19-yue" systemLanguage="yue"><tspan x="20%" text-anchor="middle" id="trsvg10-yue">做報告</tspan><tspan font-size="53" x="19.2%" y="57" text-anchor="middle" id="trsvg11-yue">總結</tspan><tspan font-size="64" x="50%" y="156" text-anchor="middle" id="trsvg12-yue">科學</tspan><tspan font-size="64" x="50%" y="248" text-anchor="middle" id="trsvg13-yue">方法</tspan></text><text font-family="Liberation Sans,sans-serif" font-weight="400" font-size="53" transform="translate(0 278)" id="trsvg19"><tspan x="20%" text-anchor="middle" id="trsvg10">Report</tspan><tspan font-size="53" x="19.2%" y="57" text-anchor="middle" id="trsvg11">conclusions</tspan><tspan font-size="64" x="50%" y="156" text-anchor="middle" id="trsvg12">Scientific</tspan><tspan font-size="64" x="50%" y="248" text-anchor="middle" id="trsvg13">method</tspan></text></switch></g></svg>